#define mgp3_width 250
#define mgp3_height 102
static char mgp3_bits[] = {
 0x00,0x00,0x00,0x00,0x00,0x00,0x00,0x00,0x00,0x00,0x00,0x00,0x00,0x00,0x00,
 0x00,0x00,0x00,0x00,0x00,0x00,0x00,0x00,0x00,0x00,0x00,0x00,0x00,0x00,0x00,
 0x00,0xfc,0x00,0x00,0x00,0x00,0x00,0x00,0x00,0x00,0x00,0x00,0x00,0x00,0x00,
 0x00,0x00,0x00,0x00,0x00,0x00,0x00,0x00,0x00,0x00,0x00,0x00,0x00,0x00,0x00,
 0x00,0x00,0x00,0xfc,0x00,0x00,0x00,0x00,0x00,0x00,0x00,0x00,0x00,0x00,0x00,
 0x00,0x00,0x00,0x00,0x00,0x00,0x00,0x00,0x00,0x00,0x00,0x00,0x00,0x00,0x00,
 0x00,0x00,0x00,0x00,0x00,0xfc,0x00,0x00,0x00,0x00,0x00,0x00,0x00,0x00,0x00,
 0x00,0x00,0x00,0x00,0x00,0x00,0x00,0x00,0x00,0x00,0x00,0x00,0x00,0x00,0x00,
 0x00,0x00,0x00,0x00,0x00,0x00,0x00,0xfc,0x00,0x00,0x00,0x00,0x00,0x00,0x00,
 0x00,0x00,0x00,0x00,0x00,0x00,0x00,0x00,0x00,0x00,0x00,0x00,0x00,0x00,0x00,
 0x00,0x00,0x00,0x00,0x00,0x00,0x00,0x00,0x00,0xfc,0x00,0x00,0x00,0x00,0x00,
 0x00,0x00,0x00,0x00,0x00,0x00,0x00,0x00,0x00,0x00,0x00,0x00,0x00,0x00,0x00,
 0x00,0x00,0x00,0x00,0x00,0x00,0x00,0x00,0x00,0x00,0x00,0xfc,0x00,0x00,0x00,
 0x00,0x00,0x00,0x00,0x00,0x00,0x00,0x00,0x00,0x00,0x00,0x00,0x00,0x00,0x00,
 0x00,0x00,0x00,0x00,0x00,0x00,0x00,0x00,0x00,0x00,0x00,0x00,0x00,0xfc,0x00,
 0x00,0x00,0x00,0x00,0x00,0x00,0x00,0x00,0x00,0x00,0x00,0x00,0x00,0x00,0x00,
 0x00,0x00,0x00,0x00,0x00,0x00,0x00,0x00,0x00,0x00,0x00,0x00,0x00,0x00,0x00,
 0xfc,0x00,0x00,0x00,0x00,0x00,0x00,0x00,0x00,0x00,0x00,0x00,0x00,0x00,0x00,
 0x00,0x00,0x00,0x00,0x00,0x00,0x00,0x00,0x00,0x00,0x00,0x00,0x00,0x00,0x00,
 0x00,0x00,0xfc,0x00,0x00,0x00,0x00,0x00,0x00,0x00,0x00,0x00,0x00,0x00,0x00,
 0x00,0x00,0x00,0x00,0x00,0x00,0x00,0x00,0x00,0x00,0x00,0x00,0x00,0x00,0x00,
 0x00,0x00,0x00,0x00,0xfc,0x00,0x00,0x00,0x00,0x00,0x00,0x00,0x00,0x00,0x00,
 0x00,0x00,0x00,0x00,0x00,0x00,0x00,0x00,0x00,0x00,0x00,0x00,0x00,0x00,0x00,
 0x00,0x00,0x00,0x00,0x00,0x00,0xfc,0x00,0x00,0x00,0x00,0x00,0x00,0x00,0x00,
 0x00,0x00,0x00,0x00,0x00,0x00,0x00,0x00,0x00,0x00,0x00,0x00,0x00,0x00,0x00,
 0x00,0x00,0x00,0x00,0x00,0x00,0x00,0x00,0xfc,0x00,0x00,0x00,0x00,0x00,0x00,
 0x00,0x00,0x00,0x00,0x00,0x00,0x00,0x00,0x00,0x00,0x00,0x00,0x00,0x00,0x00,
 0x00,0x00,0x00,0x00,0x00,0x00,0x00,0x00,0x00,0x00,0xfc,0x00,0x00,0x00,0x00,
 0x00,0x00,0x00,0x00,0x00,0x00,0x00,0x00,0x00,0x00,0x00,0x00,0x00,0x00,0x00,
 0x00,0x00,0x00,0x00,0x00,0x00,0x00,0x00,0x00,0x00,0x00,0x00,0xfc,0x00,0x00,
 0x00,0x00,0x00,0x00,0x00,0x00,0x00,0x00,0x00,0x00,0x00,0x00,0x01,0x00,0x00,
 0x00,0x00,0x00,0x00,0x00,0x00,0x00,0x00,0x00,0x00,0x00,0x00,0x00,0x00,0xfc,
 0x00,0x00,0x00,0x00,0x00,0x00,0x00,0x00,0x00,0x00,0x00,0x00,0x00,0x00,0x00,
 0x00,0x00,0x00,0x00,0x00,0x00,0x00,0x00,0x00,0x00,0x00,0x00,0x00,0x00,0x00,
 0x00,0xfc,0x00,0x00,0x00,0x00,0x00,0x00,0x00,0x00,0x00,0x00,0x00,0x00,0x00,
 0x00,0x01,0x00,0x00,0x00,0x00,0x00,0x00,0x00,0x00,0x00,0x00,0x00,0x00,0x00,
 0x00,0x00,0x00,0xfc,0x00,0x00,0x00,0x00,0x00,0x00,0x00,0x00,0x00,0x00,0x00,
 0x00,0x00,0x00,0x00,0x00,0x00,0x00,0x00,0x00,0x00,0x00,0x00,0x00,0x00,0x00,
 0x00,0x00,0x00,0x00,0x00,0xfc,0x00,0x00,0x00,0x00,0x00,0x00,0x00,0x00,0x00,
 0x00,0x00,0x00,0x00,0x00,0x00,0x00,0x00,0x00,0x00,0x00,0x00,0x00,0x00,0x00,
 0x00,0x00,0x00,0x00,0x00,0x00,0x00,0xfc,0x00,0x00,0x00,0x00,0x00,0x00,0x00,
 0x00,0x00,0x00,0x00,0x00,0x00,0x00,0x00,0x00,0x00,0x00,0x00,0x00,0x00,0x00,
 0x00,0x00,0x00,0x00,0x00,0x00,0x00,0x00,0x00,0xfc,0x00,0x00,0x00,0x00,0x00,
 0x00,0x00,0x00,0x00,0x00,0x00,0x00,0x00,0x00,0x00,0x04,0x00,0x00,0x00,0x00,
 0x00,0x00,0x00,0x00,0x00,0x00,0x00,0x00,0x00,0x00,0x00,0xfc,0x00,0x00,0x00,
 0x00,0x00,0x40,0x00,0x00,0x00,0x00,0x00,0x00,0x00,0x00,0x00,0x00,0x00,0x00,
 0x00,0x00,0x00,0x00,0x00,0x00,0x00,0x00,0x00,0x00,0x00,0x00,0x00,0xfc,0x00,
 0x00,0x00,0x00,0x00,0xa0,0x00,0x00,0x00,0x00,0x00,0x00,0x00,0x00,0x00,0x04,
 0x00,0x00,0x00,0x00,0x00,0x00,0x00,0x00,0x00,0x00,0x00,0x00,0x00,0x00,0x00,
 0xfc,0x00,0x00,0x00,0x00,0x00,0xb8,0x00,0xa0,0x02,0x00,0x00,0x00,0x00,0x00,
 0x00,0x00,0x00,0x00,0x00,0x00,0x00,0x00,0x00,0x00,0x00,0x00,0x00,0x00,0x00,
 0x00,0x00,0xfc,0x00,0x00,0x00,0x00,0x00,0xd4,0x00,0x40,0x00,0x00,0x00,0x00,
 0x00,0x00,0x00,0x00,0x00,0x00,0x00,0x00,0x00,0x00,0x00,0x00,0x00,0x00,0x00,
 0x00,0x00,0x00,0x00,0xfc,0x00,0x00,0x00,0x00,0x00,0x6c,0x00,0x90,0x02,0x00,
 0x00,0x00,0x00,0x00,0x10,0x00,0x00,0x00,0x00,0x00,0x00,0x00,0x00,0x00,0x00,
 0x00,0x00,0x00,0x00,0x00,0x00,0xfc,0x00,0x00,0x00,0x00,0x00,0x54,0x00,0x20,
 0x00,0x00,0x00,0x00,0x00,0x00,0x40,0x10,0x00,0x00,0x00,0x00,0x00,0x00,0x00,
 0x00,0x00,0x00,0x00,0x00,0x00,0x00,0x00,0xfc,0x00,0x00,0x00,0x00,0x00,0x6f,
 0x00,0x94,0x00,0x00,0x00,0x00,0x00,0x00,0x10,0x04,0x00,0x00,0x00,0x00,0x00,
 0x00,0x00,0x00,0x00,0x00,0x00,0x00,0x00,0x00,0x00,0xfc,0x00,0x00,0x00,0x00,
 0x00,0x1a,0x00,0x48,0x00,0x00,0x00,0x00,0x00,0x00,0x02,0x04,0x00,0x00,0x00,
 0x00,0x00,0x00,0x00,0x00,0x00,0x00,0x00,0x00,0x00,0x00,0x00,0xfc,0x00,0x00,
 0x00,0x00,0x80,0x35,0x00,0x24,0x01,0x00,0x00,0x00,0x00,0x00,0x40,0x00,0x00,
 0x00,0x00,0x00,0x00,0x00,0x00,0x00,0x00,0x00,0x00,0x00,0x00,0x00,0x00,0xfc,
 0x00,0x00,0x00,0x00,0x80,0x2e,0x00,0x52,0x00,0x00,0x00,0x00,0x00,0x00,0x10,
 0x02,0x00,0x00,0x00,0x00,0x00,0x00,0x00,0x00,0x00,0x00,0x00,0x00,0x00,0x00,
 0x00,0xfc,0x00,0x00,0x00,0x00,0xe0,0x15,0x00,0x8a,0x00,0x00,0x00,0x00,0x00,
 0x00,0x40,0x02,0xa0,0x00,0x00,0x00,0x00,0x00,0x00,0x00,0x00,0x00,0x00,0x00,
 0x00,0x00,0x00,0xfc,0x00,0xfc,0xff,0xff,0x2d,0xdb,0xbd,0x29,0x6e,0x5b,0x55,
 0x55,0x55,0x55,0x05,0xa9,0x56,0x4a,0x22,0x11,0x09,0x00,0x00,0x00,0x00,0x00,
 0x00,0x00,0x00,0x00,0x00,0xfc,0x00,0x54,0x55,0x95,0xd6,0x96,0x26,0x95,0xaa,
 0xaa,0xaa,0xaa,0xaa,0xaa,0x0a,0x84,0x90,0x04,0x08,0x44,0xa0,0x00,0x29,0x00,
 0x00,0x00,0x00,0x00,0x00,0x00,0x00,0xfc,0x00,0xb4,0x55,0xd5,0x6a,0xcb,0xaa,
 0x22,0x92,0x2a,0x25,0x11,0x21,0x00,0x80,0x22,0x00,0x20,0x81,0x00,0x04,0x00,
 0x00,0x00,0x00,0x00,0x00,0x00,0x00,0x00,0x00,0xfc,0x00,0x54,0xaa,0x2a,0xb9,
 0x0d,0x44,0x95,0x44,0x00,0x40,0x44,0x08,0x92,0x44,0x08,0x22,0x02,0x24,0x20,
 0x00,0x40,0x00,0x00,0x00,0x00,0x80,0x00,0x00,0x00,0x00,0xfc,0x00,0x20,0x11,
 0x44,0x54,0x4a,0xb1,0x24,0x00,0x00,0x08,0x00,0x00,0x00,0x00,0x00,0x00,0x08,
 0x00,0x82,0x00,0x00,0x00,0x00,0x00,0x00,0x00,0x00,0x00,0x10,0x00,0xfc,0x00,
 0x00,0x00,0x00,0xac,0x07,0xa8,0x08,0x00,0x89,0x02,0x00,0xfe,0x00,0x22,0x00,
 0xf8,0x01,0x00,0x00,0x80,0x04,0x00,0x00,0x00,0x00,0x00,0x00,0x00,0x01,0x00,
 0xfc,0x00,0x00,0x00,0x00,0x36,0x05,0x58,0x14,0x00,0x00,0x08,0xe0,0xff,0x01,
 0x10,0x00,0xfe,0x07,0x00,0x00,0x00,0x00,0x00,0x00,0x00,0x00,0x10,0x00,0x20,
 0x00,0x00,0xfc,0x00,0x00,0x00,0x00,0x9a,0x06,0x54,0x0a,0x10,0x00,0x00,0xa8,
 0xed,0x01,0x01,0x00,0xdf,0x0e,0x00,0x00,0x00,0x88,0x00,0x00,0x00,0x80,0x00,
 0x00,0x02,0x00,0x00,0xfc,0x00,0x00,0x00,0x80,0x4b,0x03,0x1a,0x05,0x80,0x50,
 0x0a,0xda,0xfe,0x07,0x0a,0xc0,0xff,0x0f,0x00,0x00,0x00,0x00,0x00,0x00,0x00,
 0x00,0x00,0x40,0x00,0x00,0x00,0xfc,0x00,0x00,0x00,0x80,0x86,0x01,0x15,0x12,
 0x04,0x02,0x00,0x2a,0x60,0x07,0x01,0x80,0xb3,0x0d,0x00,0x00,0x00,0x00,0x00,
 0x80,0x00,0x04,0x00,0x11,0x00,0x00,0x00,0xfc,0x00,0x00,0x00,0x40,0xc5,0x02,
 0x0e,0x09,0x10,0x00,0x84,0x1a,0xc0,0x83,0x06,0x30,0xc1,0x07,0x00,0x00,0x00,
 0x00,0x00,0x00,0x00,0x00,0x04,0x02,0x00,0x00,0x00,0xfc,0x00,0x00,0x00,0xa0,
 0x63,0x03,0x03,0x05,0x42,0x80,0x00,0x05,0x80,0x83,0x02,0xf8,0x00,0x06,0x00,
 0x00,0x00,0x00,0x00,0x00,0x20,0x20,0x10,0x00,0x00,0x00,0x00,0xfc,0x00,0x00,
 0x00,0xe0,0xa0,0xc1,0x85,0x02,0x01,0x00,0xa0,0x02,0xe0,0x81,0x02,0x7c,0x00,
 0x00,0x00,0x00,0x00,0x00,0x00,0x04,0x81,0x02,0x00,0x00,0x00,0x00,0x00,0xfc,
 0x00,0x00,0x00,0xa0,0xc1,0xa0,0x02,0x85,0x08,0x00,0x82,0x00,0xe0,0x41,0x01,
 0x1e,0x00,0x00,0x00,0x00,0x00,0x00,0x00,0x00,0x00,0x00,0x02,0x00,0x00,0x00,
 0x00,0xfc,0x00,0x00,0x00,0xf8,0x60,0x51,0x41,0x21,0x02,0x00,0x50,0x00,0xb0,
 0xa0,0x01,0x0f,0x00,0x00,0x00,0x00,0x00,0x00,0x00,0x00,0x08,0x40,0x00,0x00,
 0x00,0x00,0x00,0xfc,0x00,0x00,0x00,0x54,0xa0,0xe9,0x80,0x82,0x00,0x80,0x20,
 0x01,0xe8,0x40,0x80,0x0b,0x00,0x00,0x00,0x00,0x00,0x00,0x40,0x10,0x00,0x00,
 0x00,0x00,0x00,0x00,0x00,0xfc,0x00,0x00,0x00,0x3a,0xb0,0x30,0x40,0x51,0x00,
 0x00,0x08,0x00,0x78,0xa0,0xc0,0x07,0x00,0x00,0x00,0x00,0x00,0x00,0x08,0x80,
 0x00,0x08,0x00,0x00,0x00,0x00,0x00,0xfc,0x00,0x00,0x00,0x2e,0xd8,0x5c,0x60,
 0x21,0x01,0x00,0x50,0x00,0x2c,0x30,0x80,0x03,0x00,0x00,0x00,0x00,0x00,0x00,
 0x01,0x00,0x00,0x00,0x00,0x00,0x00,0x00,0x00,0xfc,0x00,0x00,0x00,0x1b,0xa8,
 0x34,0x20,0x11,0x00,0x10,0x00,0x00,0x38,0x48,0xa0,0x01,0x00,0x00,0x00,0x00,
 0x00,0x00,0x00,0x01,0x00,0x00,0x00,0x00,0x00,0x00,0x00,0xfc,0x00,0x00,0x00,
 0x1d,0x70,0x4f,0x50,0x49,0x00,0x40,0x14,0x00,0x1e,0x28,0xb0,0x00,0x00,0x00,
 0x00,0x00,0x00,0x20,0x00,0x04,0x00,0x00,0x00,0x00,0x00,0x00,0x00,0xfc,0x00,
 0x00,0x00,0x0b,0x58,0x0a,0xa0,0x24,0x00,0x00,0x00,0x00,0x1b,0x24,0xb0,0xdc,
 0x07,0x00,0x00,0x00,0x00,0x04,0x00,0x00,0x00,0x00,0x00,0x00,0x00,0x00,0x00,
 0xfc,0x00,0x00,0xc0,0x07,0xa8,0x0b,0x50,0x11,0x00,0x00,0x04,0x80,0x0e,0x18,
 0x38,0xbe,0x0f,0x00,0x00,0x00,0x00,0x00,0x40,0x00,0x00,0x00,0x00,0x00,0x00,
 0x00,0x00,0xfc,0x00,0x00,0xc0,0x02,0x74,0x05,0xa0,0x0a,0x00,0x00,0x01,0x80,
 0x07,0x0a,0x38,0x7f,0x0d,0x00,0x00,0x00,0x00,0x00,0x00,0x00,0x00,0x00,0x00,
 0x00,0x00,0x00,0x00,0xfc,0x00,0x00,0xa0,0x03,0xac,0x03,0xb8,0x08,0x00,0x00,
 0x04,0x40,0x05,0x14,0xbc,0xdf,0x1f,0x00,0x00,0x00,0x00,0x00,0x00,0x00,0x00,
 0x00,0x00,0x00,0x00,0x00,0x00,0xfc,0x00,0x00,0xf0,0x01,0xd8,0x00,0xa0,0x14,
 0x00,0x04,0x00,0xa0,0x03,0x0a,0xbc,0x43,0x37,0x00,0x00,0x00,0x00,0x00,0x00,
 0x00,0x00,0x00,0x00,0x00,0x00,0x00,0x00,0xfc,0x00,0x00,0xa0,0x00,0x6c,0x01,
 0x38,0x0a,0x00,0x90,0x04,0xf0,0x01,0x02,0xbe,0x03,0x3d,0x00,0x00,0x00,0x00,
 0x00,0x00,0x00,0x00,0x00,0x00,0x00,0x00,0x00,0x00,0xfc,0x00,0x00,0xf8,0x00,
 0xb4,0x00,0x48,0x11,0x00,0x00,0x00,0x58,0x01,0x05,0xfa,0x01,0x3e,0x00,0x00,
 0x00,0x21,0x00,0x00,0x00,0x00,0x00,0x00,0x00,0x00,0x00,0x00,0xfc,0x00,0x00,
 0x58,0x00,0x5e,0x00,0x34,0x0a,0x80,0x00,0x02,0xac,0x01,0x01,0xfe,0x01,0x28,
 0x00,0x00,0x00,0x00,0x00,0x00,0x00,0x06,0x00,0x00,0x00,0x00,0x00,0x00,0xfc,
 0x00,0x00,0x74,0x00,0x34,0x00,0x54,0xa9,0x10,0x00,0x48,0xe5,0x80,0x02,0x7e,
 0x00,0x3f,0x00,0x00,0x00,0x00,0x00,0x10,0x00,0x05,0x00,0x00,0x00,0x00,0x00,
 0x00,0xfc,0x00,0x00,0x3e,0x00,0x16,0x00,0x58,0x15,0x42,0x08,0x21,0xa5,0x40,
 0x01,0x76,0xe0,0x37,0x00,0x00,0x80,0x00,0x00,0x00,0x80,0x07,0x00,0x00,0x00,
 0x00,0x00,0x00,0xfc,0x00,0x00,0x14,0x00,0x0a,0x00,0x16,0xa2,0x04,0x00,0x48,
 0x71,0x80,0x00,0xfe,0xff,0x19,0x00,0x00,0x00,0x08,0x00,0x00,0x00,0x05,0x00,
 0x00,0x00,0x00,0x00,0x00,0xfc,0x00,0x00,0x00,0x00,0x00,0x00,0x14,0x48,0x10,
 0x01,0x22,0x50,0xa0,0x00,0xfe,0xdf,0x11,0x00,0x00,0x00,0x00,0x00,0x00,0xc0,
 0x03,0x00,0x00,0x00,0x00,0x00,0x00,0xfc,0x00,0x00,0x00,0x00,0x00,0x00,0x0c,
 0x04,0x01,0x04,0x00,0x2c,0x40,0x00,0xbc,0xff,0x0c,0x00,0x00,0x00,0x00,0x00,
 0x00,0x80,0x02,0x00,0x00,0x00,0x00,0x00,0x00,0xfc,0x00,0x00,0x00,0x00,0x00,
 0x00,0x00,0x00,0x00,0x00,0x00,0x34,0x60,0x00,0xf8,0x1d,0x07,0x00,0x00,0x00,
 0x00,0x00,0x02,0xc0,0x01,0x00,0x00,0x00,0x00,0x00,0x00,0xfc,0x00,0x00,0x00,
 0x00,0x00,0x00,0x00,0x00,0x00,0x00,0x00,0x14,0x30,0x00,0x8c,0x01,0x07,0xa0,
 0x00,0x00,0xa0,0x80,0x01,0x60,0x01,0x00,0x00,0x00,0x00,0x00,0x00,0xfc,0x00,
 0x00,0x00,0x00,0x00,0x00,0x00,0x00,0x00,0x00,0x00,0x15,0x10,0x00,0x0e,0x80,
 0x03,0x34,0x01,0x00,0x40,0x60,0x02,0xa3,0x01,0x00,0x00,0x00,0x00,0x00,0x00,
 0xfc,0x00,0x00,0x00,0x00,0x00,0x00,0x00,0x00,0x00,0x00,0x80,0x0a,0x30,0x00,
 0x0e,0xe0,0x03,0x9b,0x00,0x00,0x20,0xac,0xc1,0xfa,0x7e,0x00,0x00,0x00,0x00,
 0x00,0x00,0xfc,0x00,0x00,0x00,0x00,0x00,0x00,0x00,0x00,0x00,0x00,0x00,0x05,
 0x00,0x00,0x07,0xb0,0xc1,0x56,0x02,0x08,0x50,0x54,0x63,0xaf,0x5b,0x00,0x00,
 0x00,0x00,0x00,0x00,0xfc,0x00,0x00,0x00,0x00,0x00,0x00,0x00,0x00,0x00,0x00,
 0x40,0x02,0x00,0x00,0x07,0xfc,0xe0,0x5b,0x01,0x00,0x90,0xba,0xa1,0xf5,0x3e,
 0x00,0x00,0x00,0x00,0x00,0x00,0xfc,0x00,0x00,0x00,0x00,0x00,0x00,0x00,0x00,
 0x00,0x00,0x00,0x01,0x00,0x80,0x87,0x3f,0xb0,0xa2,0x04,0x00,0xa8,0xc2,0xc2,
 0x5a,0x17,0x00,0x00,0x00,0x00,0x00,0x00,0xfc,0x00,0x00,0x00,0x00,0x00,0x00,
 0x00,0x00,0x00,0x00,0xa0,0x00,0x00,0xc0,0xff,0x1f,0xf8,0x00,0x01,0x04,0x44,
 0x41,0x03,0x34,0x00,0x00,0x00,0x00,0x00,0x00,0x00,0xfc,0x00,0x00,0x00,0x00,
 0x00,0x00,0x00,0x00,0x00,0x00,0x90,0x00,0x00,0xc0,0xfe,0x07,0x2c,0x80,0x00,
 0x00,0x28,0x80,0x00,0x2c,0x00,0x00,0x00,0x00,0x00,0x00,0x00,0xfc,0x00,0x00,
 0x00,0x00,0x00,0x00,0x00,0x00,0x00,0x00,0x48,0x00,0x00,0xe0,0xff,0x01,0x1e,
 0x80,0x02,0x00,0xa2,0x80,0x01,0x1a,0x00,0x00,0x00,0x00,0x00,0x00,0x00,0xfc,
 0x00,0x00,0x00,0x00,0x00,0x00,0x00,0x00,0x80,0x80,0x12,0x00,0x00,0xa0,0x7b,
 0x00,0x1b,0x40,0x01,0x00,0x14,0x60,0x01,0x0c,0x00,0x00,0x00,0x00,0x00,0x00,
 0x00,0xfc,0x00,0x00,0x00,0x00,0x00,0x00,0x00,0x00,0x00,0x02,0x00,0x00,0x00,
 0xe0,0x00,0x00,0x0f,0x00,0x02,0x01,0x08,0xa0,0x00,0x06,0x00,0x00,0x00,0x00,
 0x00,0x00,0x00,0xfc,0x00,0x00,0x00,0x00,0x00,0x00,0x00,0x00,0x20,0x08,0x08,
 0x00,0x00,0x70,0x00,0x80,0x06,0xc0,0x00,0x80,0x12,0xa0,0x00,0x0b,0x00,0x00,
 0x00,0x00,0x00,0x00,0x00,0xfc,0x00,0x00,0x00,0x00,0x00,0x00,0x00,0x00,0x00,
 0x00,0x02,0x00,0x00,0x78,0x00,0x80,0x07,0x20,0x01,0x00,0x04,0x50,0x00,0x05,
 0x00,0x00,0x00,0x00,0x00,0x00,0x00,0xfc,0x00,0x00,0x00,0x00,0x00,0x00,0x00,
 0x00,0x00,0x50,0x00,0x00,0x00,0x28,0x00,0xc0,0x03,0x40,0x20,0x00,0x01,0x68,
 0x80,0x06,0x00,0x00,0x00,0x00,0x00,0x00,0x00,0xfc,0x00,0x00,0x00,0x00,0x00,
 0x00,0x00,0x00,0x00,0x00,0x00,0x00,0x00,0x3c,0x00,0x60,0x03,0xb0,0x00,0x00,
 0x02,0x18,0x00,0x05,0x00,0x00,0x00,0x00,0x00,0x00,0x00,0xfc,0x00,0x00,0x00,
 0x00,0x00,0x00,0x00,0x00,0x00,0x00,0x00,0x00,0x00,0x18,0x00,0xe0,0x01,0x20,
 0x08,0x80,0x00,0x2c,0xc0,0x03,0x00,0x00,0x00,0x00,0x00,0x00,0x00,0xfc,0x00,
 0x00,0x00,0x00,0x00,0x00,0x00,0x00,0x00,0x00,0x00,0x00,0x00,0x1e,0x00,0xe0,
 0x01,0x18,0x20,0x00,0x00,0x14,0x80,0x02,0x00,0x00,0x00,0x00,0x00,0x00,0x00,
 0xfc,0x00,0x00,0x00,0x00,0x00,0x00,0x00,0x00,0x00,0x00,0x00,0x00,0x00,0x0e,
 0x00,0xd0,0x00,0x28,0x80,0x90,0x00,0x14,0x60,0x01,0x00,0x00,0x11,0x11,0x11,
 0x11,0x00,0xfc,0x00,0x00,0x00,0x00,0x00,0x00,0x00,0x00,0x00,0x00,0x00,0x00,
 0x00,0x0c,0x00,0xf0,0x44,0x14,0x09,0x02,0x54,0x5a,0xa5,0xa9,0xaa,0xaa,0xaa,
 0xaa,0xaa,0x4a,0x00,0xfc,0x00,0x00,0x00,0x00,0x00,0x00,0x00,0x00,0x92,0x44,
 0x92,0xa4,0x24,0xa7,0xaa,0xf2,0x10,0x4e,0x82,0x44,0x22,0x85,0xd4,0x54,0x55,
 0x55,0x55,0x55,0x55,0x35,0x00,0xfc,0x00,0x00,0x00,0x00,0x00,0x40,0xaa,0xaa,
 0x00,0x80,0x20,0x08,0x11,0x07,0x10,0xf1,0x54,0x25,0x49,0x02,0x5b,0xad,0x72,
 0x56,0xed,0xb6,0x6a,0xed,0xff,0x6f,0x00,0xfc,0x00,0x00,0x00,0x00,0x00,0x00,
 0x01,0x00,0xaa,0x2a,0x95,0x52,0xaa,0x6b,0x6b,0xf5,0xcb,0xd7,0x60,0x83,0x55,
 0x6a,0x2d,0xfb,0xb7,0xdb,0xdf,0xbb,0xaa,0x7a,0x00,0xfc,0x00,0x00,0x00,0x00,
 0x00,0x00,0x00,0x00,0x00,0x00,0x00,0x00,0xc0,0x03,0x00,0xb0,0x7f,0x01,0x05,
 0x08,0x00,0x05,0x68,0x00,0x00,0x00,0x00,0x00,0x00,0x00,0x00,0xfc,0x00,0x00,
 0x00,0x00,0x00,0x00,0x00,0x00,0x00,0x00,0x00,0x00,0x40,0x01,0x00,0xf0,0xee,
 0x00,0x00,0x00,0x00,0x05,0x18,0x00,0x00,0x00,0x00,0x00,0x00,0x00,0x00,0xfc,
 0x00,0x00,0x00,0x00,0x00,0x00,0x00,0x00,0x00,0x00,0x00,0x00,0xc0,0x00,0x00,
 0xf0,0x7b,0x80,0x02,0x00,0x80,0x02,0x2c,0x00,0x00,0x00,0x00,0x00,0x00,0x00,
 0x00,0xfc,0x00,0x00,0x00,0x00,0x00,0x00,0x00,0x00,0x00,0x00,0x00,0x00,0x00,
 0x00,0x00,0xf0,0x1f,0x00,0x01,0x00,0x40,0x01,0x14,0x00,0x00,0x00,0x00,0x00,
 0x00,0x00,0x00,0xfc,0x00,0x00,0x00,0x00,0x00,0x00,0x00,0x00,0x00,0x00,0x00,
 0x00,0x00,0x00,0x00,0x80,0x07,0x00,0x00,0x00,0x00,0x01,0x0e,0x00,0x00,0x00,
 0x00,0x00,0x00,0x00,0x00,0xfc,0x00,0x00,0x00,0x00,0x00,0x00,0x00,0x00,0x00,
 0x00,0x00,0x00,0x00,0x00,0x00,0x00,0x00,0x00,0x00,0x00,0x40,0x01,0x0a,0x00,
 0x00,0x00,0x00,0x00,0x00,0x00,0x00,0xfc,0x00,0x00,0x00,0x00,0x00,0x00,0x00,
 0x00,0x00,0x00,0x00,0x00,0x00,0x00,0x00,0x00,0x00,0x00,0x00,0x02,0x20,0x00,
 0x05,0x00,0x00,0x00,0x00,0x00,0x00,0x00,0x00,0xfc,0x00,0x00,0x00,0x00,0x00,
 0x00,0x00,0x00,0x00,0x00,0x00,0x00,0x00,0x00,0x00,0x00,0x00,0x00,0x00,0x00,
 0x00,0x00,0x00,0x00,0x00,0x00,0x00,0x00,0x00,0x00,0x00,0xfc,0x00,0x00,0x00,
 0x00,0x00,0x00,0x00,0x00,0x00,0x00,0x00,0x00,0x00,0x00,0x00,0x00,0x00,0x00,
 0x00,0x00,0x00,0x00,0x00,0x00,0x00,0x00,0x00,0x00,0x00,0x00,0x00,0xfc,0x00,
 0x00,0x00,0x00,0x00,0x00,0x00,0x00,0x00,0x00,0x00,0x00,0x00,0x00,0x00,0x00,
 0x00,0x00,0x00,0x00,0x00,0x00,0x00,0x00,0x00,0x00,0x00,0x00,0x00,0x00,0x00,
 0xfc,0x00,0x00,0x00,0x00,0x00,0x00,0x00,0x00,0x00,0x00,0x00,0x00,0x00,0x00,
 0x00,0x00,0x00,0x00,0x00,0x00,0x00,0x00,0x00,0x00,0x00,0x00,0x00,0x00,0x00,
 0x00,0x00,0xfc,0x00,0x00,0x00,0x00,0x00,0x00,0x00,0x00,0x00,0x00,0x00,0x00,
 0x00,0x00,0x00,0x00,0x00,0x00,0x00,0x00,0x00,0x00,0x00,0x00,0x00,0x00,0x00,
 0x00,0x00,0x00,0x00,0xfc,0x00,0x00,0x00,0x00,0x00,0x00,0x00,0x00,0x00,0x00,
 0x00,0x00,0x00,0x00,0x00,0x00,0x00,0x00,0x00,0x00,0x00,0x00,0x00,0x00,0x00,
 0x00,0x00,0x00,0x00,0x00,0x00,0xfc,0x00,0x00,0x00,0x00,0x00,0x00,0x00,0x00,
 0x00,0x00,0x00,0x00,0x00,0x00,0x00,0x00,0x00,0x00,0x00,0x00,0x00,0x00,0x00,
 0x00,0x00,0x00,0x00,0x00,0x00,0x00,0x00,0xfc};
